<?xml version="1.0" encoding="utf-8"?>
<svg viewBox="-90.084 91.573 500 500" xmlns="http://www.w3.org/2000/svg">
  <g transform="matrix(1, 0, 0, 1, 101.847612, 97.898241)" style="visibility: hidden;">
    <path d="M 191.546 172.028 L 213.146 71.828 C 206.846 72.028 202.019 74.428 198.666 79.028 C 195.319 83.628 193.646 91.578 193.646 102.878 C 193.646 106.578 193.996 109.155 194.696 110.608 C 195.396 112.055 195.746 112.878 195.746 113.078 C 190.346 113.078 186.323 111.955 183.676 109.708 C 181.023 107.455 179.696 103.728 179.696 98.528 C 179.696 91.428 181.446 84.955 184.946 79.108 C 188.446 73.255 194.019 68.528 201.666 64.928 C 209.319 61.328 219.046 59.528 230.846 59.528 C 233.246 59.528 236.446 59.778 240.446 60.278 C 247.646 60.978 252.746 61.328 255.746 61.328 C 261.046 61.328 265.546 60.728 269.246 59.528 C 268.946 60.428 268.396 62.401 267.596 65.448 C 266.796 68.501 265.369 71.105 263.316 73.258 C 261.269 75.405 258.496 76.828 254.996 77.528 C 249.096 77.528 242.096 76.578 233.996 74.678 L 227.696 104.528 L 249.596 104.528 L 247.196 115.628 L 225.296 115.628 L 213.146 172.028 L 191.546 172.028 Z" transform="matrix(1, 0, 0, 1, -146.53041076660156, 169.31842041015625)" style="fill: rgb(51, 51, 51); white-space: pre;"/>
    <path d="M 71.397 386.576 L 90.891 295.157 L 93.473 283.277 L 95.547 274.962 C 96.361 273.146 105.858 274.076 111.014 274.076 C 112.414 274.076 114.247 274.176 116.847 274.376 L 107.247 319.076 L 129.297 319.076 L 138.897 274.376 L 160.497 274.376 L 136.647 386.576 L 115.047 386.576 L 127.047 330.176 L 104.997 330.176 L 92.997 386.576 L 71.397 386.576 Z" style="fill: rgb(51, 51, 51); white-space: pre;"/>
  </g>
  <g transform="matrix(2.591359, 0, 0, 2.591359, -89.25657, -460.866431)" style="">
    <path d="M 191.546 172.028 L 213.146 71.828 C 206.846 72.028 202.019 74.428 198.666 79.028 C 195.319 83.628 193.646 91.578 193.646 102.878 C 193.646 106.578 193.996 109.155 194.696 110.608 C 195.396 112.055 195.746 112.878 195.746 113.078 C 190.346 113.078 186.323 111.955 183.676 109.708 C 181.023 107.455 179.696 103.728 179.696 98.528 C 179.696 91.428 181.446 84.955 184.946 79.108 C 188.446 73.255 194.019 68.528 201.666 64.928 C 209.319 61.328 219.046 59.528 230.846 59.528 C 233.246 59.528 236.446 59.778 240.446 60.278 C 247.646 60.978 252.746 61.328 255.746 61.328 C 261.046 61.328 265.546 60.728 269.246 59.528 C 268.946 60.428 268.396 62.401 267.596 65.448 C 266.796 68.501 265.369 71.105 263.316 73.258 C 261.269 75.405 258.496 76.828 254.996 77.528 C 249.096 77.528 242.096 76.578 233.996 74.678 L 227.696 104.528 L 249.596 104.528 L 247.196 115.628 L 225.296 115.628 L 213.146 172.028 L 191.546 172.028 Z" transform="matrix(1, 0, 0, 1, -146.53041076660156, 169.31842041015625)" style="fill: rgb(51, 51, 51); white-space: pre;"/>
    <path d="M 71.397 386.576 L 90.891 295.157 L 93.473 283.277 L 95.547 274.962 C 96.361 273.146 105.858 274.076 111.014 274.076 C 112.414 274.076 114.247 274.176 116.847 274.376 L 107.247 319.076 L 129.297 319.076 L 138.897 274.376 L 160.497 274.376 L 136.647 386.576 L 115.047 386.576 L 127.047 330.176 L 104.997 330.176 L 92.997 386.576 L 71.397 386.576 Z" style="fill: rgb(51, 51, 51); white-space: pre;"/>
  </g>
</svg>